Coordinates
version=1
nRows=27
nColumns=12
inDegrees=yes

Units are S.I. units (second, meters, Newtons, ...)
Angles are in degrees

endheader
time	SC_y	SC_z	SC_x	AC_y	AC_z	AC_x	GH_y	GH_z	GH_yy	EL_x	PS_y
       0.0              -17.73          24.67           10.7          63.27         -14.26          11.28         -59.91          34.99          34.06          13.25          101.8
   0.02293              -17.74          24.67          10.71          63.27         -14.26          11.28         -59.93          34.99          34.05          13.25          101.8
   0.04586              -17.74          24.66          10.71          63.26         -14.26          11.28         -59.94          34.98          34.04          13.26          101.7
   0.06879              -17.74          24.66          10.72          63.26         -14.26          11.27         -59.96          34.98          34.02          13.27          101.7
   0.09171              -17.75          24.66          10.72          63.26         -14.25          11.27         -59.98          34.98          34.01          13.28          101.7
    0.1146              -17.75          24.65          10.73          63.25         -14.25          11.27         -59.99          34.97          33.99          13.29          101.7
    0.1376              -17.75          24.65          10.74          63.25         -14.25          11.26         -60.02          34.97          33.98           13.3          101.7
    0.1605              -17.76          24.64          10.74          63.25         -14.25          11.26         -60.04          34.96          33.96          13.32          101.7
    0.1834              -17.76          24.64          10.75          63.24         -14.25          11.26         -60.06          34.96          33.94          13.33          101.7
    0.2064              -17.77          24.63          10.76          63.24         -14.24          11.25         -60.09          34.95          33.92          13.34          101.6
    0.2293              -17.77          24.62          10.77          63.23         -14.24          11.25         -60.11          34.94           33.9          13.36          101.6
    0.2522              -17.78          24.62          10.78          63.23         -14.24          11.24         -60.14          34.94          33.87          13.37          101.6
    0.2751              -17.79          24.61          10.79          63.22         -14.23          11.23         -60.17          34.93          33.85          13.39          101.6
    0.2981              -17.79           24.6           10.8          63.21         -14.23          11.23         -60.21          34.92          33.82          13.41          101.6
     0.321               -17.8          24.59          10.81          63.21         -14.23          11.22         -60.24          34.91          33.79          13.43          101.5
    0.3439              -17.81          24.59          10.82           63.2         -14.22          11.21         -60.28           34.9          33.76          13.45          101.5
    0.3669              -17.82          24.58          10.84          63.19         -14.22          11.21         -60.32          34.89          33.72          13.47          101.5
    0.3898              -17.83          24.57          10.85          63.18         -14.21           11.2         -60.37          34.88          33.68           13.5          101.5
    0.4127              -17.84          24.55          10.87          63.17         -14.21          11.19         -60.42          34.87          33.64          13.53          101.4
    0.4356              -17.85          24.54          10.88          63.16          -14.2          11.18         -60.48          34.86          33.59          13.56          101.4
    0.4586              -17.86          24.53           10.9          63.15         -14.19          11.17         -60.54          34.84          33.54          13.59          101.3
    0.4815              -17.87          24.51          10.93          63.14         -14.19          11.15         -60.61          34.83          33.49          13.63          101.3
    0.5044              -17.89          24.49          10.95          63.12         -14.18          11.14         -60.68          34.81          33.42          13.67          101.2
    0.5274              -17.91          24.48          10.98          63.11         -14.17          11.12         -60.77          34.79          33.35          13.72          101.2
    0.5503              -17.92          24.45          11.01          63.09         -14.16          11.11         -60.86          34.77          33.28          13.77          101.1
    0.5732              -17.95          24.43          11.04          63.07         -14.15          11.09         -60.96          34.74          33.19          13.82          101.1
    0.5961              -17.97           24.4          11.08          63.05         -14.14          11.07         -61.07          34.71           33.1          13.89          101.0
